<?xml version="1.0" encoding="UTF-8" standalone="no"?>
<!-- Created with Inkscape (http://www.inkscape.org/) -->

<svg
   xmlns:dc="http://purl.org/dc/elements/1.1/"
   xmlns:cc="http://creativecommons.org/ns#"
   xmlns:rdf="http://www.w3.org/1999/02/22-rdf-syntax-ns#"
   xmlns:svg="http://www.w3.org/2000/svg"
   xmlns="http://www.w3.org/2000/svg"
   xmlns:sodipodi="http://sodipodi.sourceforge.net/DTD/sodipodi-0.dtd"
   xmlns:inkscape="http://www.inkscape.org/namespaces/inkscape"
   width="10cm"
   height="4.5cm"
   viewBox="0 0 100 44.999997"
   version="1.1"
   id="svg8"
   inkscape:version="0.92.3 (2405546, 2018-03-11)"
   sodipodi:docname="logo.svg">
  <defs
     id="defs2" />
  <sodipodi:namedview
     id="base"
     pagecolor="#ffffff"
     bordercolor="#666666"
     borderopacity="1.0"
     inkscape:pageopacity="0.0"
     inkscape:pageshadow="2"
     inkscape:zoom="3.6650702"
     inkscape:cx="161.02141"
     inkscape:cy="72.370108"
     inkscape:document-units="mm"
     inkscape:current-layer="g839"
     showgrid="false"
     inkscape:window-width="1914"
     inkscape:window-height="1032"
     inkscape:window-x="0"
     inkscape:window-y="22"
     inkscape:window-maximized="0"
     showguides="false"
     units="cm" />
  <metadata
     id="metadata5">
    <rdf:RDF>
      <cc:Work
         rdf:about="">
        <dc:format>image/svg+xml</dc:format>
        <dc:type
           rdf:resource="http://purl.org/dc/dcmitype/StillImage" />
        <dc:title />
      </cc:Work>
    </rdf:RDF>
  </metadata>
  <g
     inkscape:label="Layer 1"
     inkscape:groupmode="layer"
     id="layer1"
     transform="translate(0,-252.00026)">
    <g
       aria-label="barrel"
       style="font-style:normal;font-variant:normal;font-weight:bold;font-stretch:normal;font-size:20.37609673px;line-height:1.25;font-family:Quicksand;-inkscape-font-specification:'Quicksand Bold';letter-spacing:0px;word-spacing:0px;fill:#000000;fill-opacity:1;stroke:none;stroke-width:0.50940239"
       id="text968">
      <path
         d="m 41.584764,271.53284 q 1.445345,0 2.605424,0.70366 1.179097,0.68464 1.844716,1.90177 0.684637,1.19811 0.684637,2.68149 0,1.48338 -0.703655,2.70051 -0.684637,1.21714 -1.901769,1.92079 -1.198114,0.68464 -2.681494,0.68464 -1.48338,0 -2.700512,-0.68464 -1.198115,-0.70365 -1.901769,-1.92079 -0.684637,-1.21713 -0.684637,-2.70051 v -4.46916 q 0,-0.1141 0.01902,-0.17115 v -4.25997 q 0,-0.3233 0.190177,-0.53249 0.209195,-0.2092 0.532496,-0.2092 0.3233,0 0.532495,0.2092 0.209195,0.20919 0.209195,0.53249 v 5.57219 q 0.665619,-0.91285 1.692574,-1.42633 1.026955,-0.5325 2.263105,-0.5325 z m -0.152141,9.26162 q 1.084008,0 1.958822,-0.51348 0.893831,-0.53249 1.388291,-1.42633 0.513478,-0.91284 0.513478,-2.03489 0,-1.12204 -0.513478,-2.01587 -0.49446,-0.91285 -1.388291,-1.42633 -0.874814,-0.51348 -1.958822,-0.51348 -1.502398,0 -2.567389,0.95089 -1.045973,0.95088 -1.236149,2.43426 0,0.0571 -0.01902,0.0951 -0.01902,0.15214 -0.01902,0.47544 0,1.12205 0.49446,2.03489 0.513478,0.89384 1.388292,1.42633 0.874813,0.51348 1.958822,0.51348 z"
         style="font-style:normal;font-variant:normal;font-weight:normal;font-stretch:normal;font-size:19.01769066px;font-family:Comfortaa;-inkscape-font-specification:Comfortaa;stroke-width:0.50940239"
         id="path841"
         inkscape:connector-curvature="0" />
      <path
         d="m 54.327211,271.53284 q 1.48338,0 2.681494,0.70366 1.217132,0.68464 1.901769,1.90177 0.703655,1.21713 0.703655,2.70051 v 4.46916 q 0,0.30428 -0.209195,0.51347 -0.209194,0.2092 -0.532495,0.2092 -0.323301,0 -0.532495,-0.19018 -0.209195,-0.20919 -0.209195,-0.53249 v -1.14106 q -0.665619,0.91284 -1.692574,1.44534 -1.026956,0.51348 -2.263106,0.51348 -1.445344,0 -2.624441,-0.68464 -1.160079,-0.70365 -1.844716,-1.90177 -0.665619,-1.21713 -0.665619,-2.70051 0,-1.48338 0.684637,-2.70051 0.703654,-1.21713 1.901769,-1.90177 1.217132,-0.70366 2.700512,-0.70366 z m 0,9.26162 q 1.084008,0 1.958822,-0.51348 0.874814,-0.51348 1.369274,-1.40731 0.513477,-0.91285 0.513477,-2.03489 0,-1.12204 -0.513477,-2.01588 -0.49446,-0.91284 -1.369274,-1.42632 -0.874814,-0.5325 -1.958822,-0.5325 -1.084008,0 -1.97784,0.5325 -0.874814,0.51348 -1.388291,1.42632 -0.49446,0.89384 -0.49446,2.01588 0,1.12204 0.49446,2.03489 0.513477,0.89383 1.388291,1.40731 0.893832,0.51348 1.97784,0.51348 z"
         style="font-style:normal;font-variant:normal;font-weight:normal;font-stretch:normal;font-size:19.01769066px;font-family:Comfortaa;-inkscape-font-specification:Comfortaa;stroke-width:0.50940239"
         id="path843"
         inkscape:connector-curvature="0" />
      <path
         d="m 67.178119,271.51383 q 0.798743,0 1.255168,0.20919 0.475442,0.2092 0.475442,0.58955 0,0.11411 -0.01902,0.17116 -0.07607,0.26625 -0.24723,0.36133 -0.152141,0.0951 -0.437407,0.0951 -0.171159,0 -0.589548,-0.038 -0.152141,-0.019 -0.456425,-0.019 -1.426326,0 -2.339175,0.76071 -0.893832,0.76071 -0.893832,1.97784 v 5.68629 q 0,0.34232 -0.190177,0.53249 -0.190177,0.19018 -0.532495,0.19018 -0.342319,0 -0.532496,-0.19018 -0.190176,-0.19017 -0.190176,-0.53249 v -8.95734 q 0,-0.34231 0.190176,-0.53249 0.190177,-0.19018 0.532496,-0.19018 0.342318,0 0.532495,0.19018 0.190177,0.19018 0.190177,0.53249 v 0.83678 q 0.551513,-0.79874 1.407309,-1.23615 0.855796,-0.4374 1.844716,-0.4374 z"
         style="font-style:normal;font-variant:normal;font-weight:normal;font-stretch:normal;font-size:19.01769066px;font-family:Comfortaa;-inkscape-font-specification:Comfortaa;stroke-width:0.50940239"
         id="path845"
         inkscape:connector-curvature="0" />
      <path
         d="m 75.90694,271.51383 q 0.798743,0 1.255168,0.20919 0.475442,0.2092 0.475442,0.58955 0,0.11411 -0.01902,0.17116 -0.07607,0.26625 -0.24723,0.36133 -0.152141,0.0951 -0.437407,0.0951 -0.171159,0 -0.589548,-0.038 -0.152142,-0.019 -0.456425,-0.019 -1.426327,0 -2.339176,0.76071 -0.893831,0.76071 -0.893831,1.97784 v 5.68629 q 0,0.34232 -0.190177,0.53249 -0.190177,0.19018 -0.532495,0.19018 -0.342319,0 -0.532496,-0.19018 -0.190177,-0.19017 -0.190177,-0.53249 v -8.95734 q 0,-0.34231 0.190177,-0.53249 0.190177,-0.19018 0.532496,-0.19018 0.342318,0 0.532495,0.19018 0.190177,0.19018 0.190177,0.53249 v 0.83678 q 0.551513,-0.79874 1.407309,-1.23615 0.855796,-0.4374 1.844716,-0.4374 z"
         style="font-style:normal;font-variant:normal;font-weight:normal;font-stretch:normal;font-size:19.01769066px;font-family:Comfortaa;-inkscape-font-specification:Comfortaa;stroke-width:0.50940239"
         id="path847"
         inkscape:connector-curvature="0" />
      <path
         d="m 83.366629,271.53284 q 1.407309,0 2.491318,0.66562 1.084008,0.6466 1.673556,1.80668 0.608567,1.16008 0.608567,2.64346 0,0.30429 -0.190177,0.49446 -0.190177,0.17116 -0.49446,0.17116 h -7.683147 q 0.152141,1.55945 1.217132,2.52935 1.064991,0.96991 2.662477,0.96991 0.684636,0 1.369273,-0.22822 0.703655,-0.24723 1.122044,-0.60856 0.24723,-0.19018 0.513478,-0.19018 0.209194,0 0.418389,0.15214 0.24723,0.22822 0.24723,0.51348 0,0.24723 -0.209195,0.43741 -0.627584,0.53249 -1.597486,0.89383 -0.969902,0.34232 -1.863733,0.34232 -1.521416,0 -2.71953,-0.66562 -1.198115,-0.68464 -1.882752,-1.88275 -0.665619,-1.21714 -0.665619,-2.73855 0,-1.54043 0.627584,-2.73855 0.646602,-1.21713 1.768645,-1.88275 1.141062,-0.68464 2.586406,-0.68464 z m 0,1.31222 q -1.445344,0 -2.396229,0.89384 -0.950884,0.89383 -1.160079,2.35819 h 6.960475 q -0.152142,-1.46436 -1.064991,-2.35819 -0.912849,-0.89384 -2.339176,-0.89384 z"
         style="font-style:normal;font-variant:normal;font-weight:normal;font-stretch:normal;font-size:19.01769066px;font-family:Comfortaa;-inkscape-font-specification:Comfortaa;stroke-width:0.50940239"
         id="path849"
         inkscape:connector-curvature="0" />
      <path
         d="m 92.842788,282.03061 q -1.16008,0 -1.90177,-0.91285 -0.722672,-0.93187 -0.722672,-2.37721 v -10.84009 q 0,-0.3233 0.209195,-0.51347 0.209194,-0.2092 0.513477,-0.2092 0.323301,0 0.513478,0.2092 0.209195,0.19017 0.209195,0.51347 v 10.84009 q 0,0.81776 0.3233,1.33124 0.342319,0.51347 0.855797,0.51347 h 0.475442 q 0.285265,0 0.456424,0.2092 0.17116,0.19018 0.17116,0.51348 0,0.3233 -0.24723,0.53249 -0.228213,0.19018 -0.608567,0.19018 z"
         style="font-style:normal;font-variant:normal;font-weight:normal;font-stretch:normal;font-size:19.01769066px;font-family:Comfortaa;-inkscape-font-specification:Comfortaa;stroke-width:0.50940239"
         id="path851"
         inkscape:connector-curvature="0" />
    </g>
    <g
       id="g839"
       transform="translate(0,0.0917458)">
      <rect
         y="256.67191"
         x="3.3755143"
         height="36.679298"
         width="24.888735"
         id="rect815-6-7"
         style="opacity:1;fill:#666666;fill-opacity:1;stroke:none;stroke-width:2.76557231;stroke-linecap:round;stroke-linejoin:round;stroke-miterlimit:4;stroke-dasharray:none;stroke-dashoffset:0;stroke-opacity:0.64878049;paint-order:fill markers stroke" />
      <rect
         y="255.34891"
         x="2.7532961"
         height="1.5555459"
         width="26.133173"
         id="rect815"
         style="opacity:1;fill:#4d4d4d;fill-opacity:1;stroke:none;stroke-width:0.7789228;stroke-linecap:round;stroke-linejoin:round;stroke-miterlimit:4;stroke-dasharray:none;stroke-dashoffset:0;stroke-opacity:0.64878049;paint-order:fill markers stroke" />
      <rect
         y="292.68201"
         x="2.7532961"
         height="1.5555459"
         width="26.133173"
         id="rect815-3"
         style="opacity:1;fill:#4d4d4d;fill-opacity:1;stroke:none;stroke-width:0.7789228;stroke-linecap:round;stroke-linejoin:round;stroke-miterlimit:4;stroke-dasharray:none;stroke-dashoffset:0;stroke-opacity:0.64878049;paint-order:fill markers stroke" />
      <rect
         y="268.10437"
         x="3.3755143"
         height="0.62221843"
         width="24.888735"
         id="rect815-5"
         style="opacity:1;fill:#4d4d4d;fill-opacity:1;stroke:none;stroke-width:0.74082875;stroke-linecap:round;stroke-linejoin:round;stroke-miterlimit:4;stroke-dasharray:none;stroke-dashoffset:0;stroke-opacity:0.64878049;paint-order:fill markers stroke" />
      <rect
         y="281.17096"
         x="3.3755143"
         height="0.62221843"
         width="24.888735"
         id="rect815-5-5"
         style="opacity:1;fill:#4d4d4d;fill-opacity:1;stroke:none;stroke-width:0.74082875;stroke-linecap:round;stroke-linejoin:round;stroke-miterlimit:4;stroke-dasharray:none;stroke-dashoffset:0;stroke-opacity:0.64878049;paint-order:fill markers stroke" />
      <rect
         y="255.37721"
         x="16.446571"
         height="38.852245"
         width="11.822151"
         id="rect815-6-8"
         style="opacity:0.55;fill:#4d4d4d;fill-opacity:1;stroke:none;stroke-width:2.68609262;stroke-linecap:round;stroke-linejoin:round;stroke-miterlimit:4;stroke-dasharray:none;stroke-dashoffset:0;stroke-opacity:0.64878049;paint-order:fill markers stroke" />
      <rect
         transform="rotate(-45)"
         y="200.44443"
         x="-188.45515"
         height="11.199931"
         width="11.199931"
         id="rect909"
         style="opacity:1;fill:#e6e6e6;fill-opacity:1;stroke:#868686;stroke-width:0.62221843;stroke-linecap:square;stroke-linejoin:miter;stroke-miterlimit:4;stroke-dasharray:none;stroke-dashoffset:0;stroke-opacity:1;paint-order:markers fill stroke" />
      <text
         id="text913"
         y="276.47345"
         x="10.648504"
         style="font-style:normal;font-variant:normal;font-weight:bold;font-stretch:normal;font-size:12.76389503px;line-height:1.25;font-family:Quicksand;-inkscape-font-specification:'Quicksand Bold';letter-spacing:0px;word-spacing:0px;fill:#202020;fill-opacity:1;stroke:none;stroke-width:0.3190974"
         xml:space="preserve"><tspan
           style="font-style:normal;font-variant:normal;font-weight:bold;font-stretch:normal;font-size:5.1055584px;font-family:Quicksand;-inkscape-font-specification:'Quicksand Bold';fill:#202020;fill-opacity:1;stroke-width:0.3190974"
           y="276.47345"
           x="10.648504"
           id="tspan911"
           sodipodi:role="line">SQL</tspan></text>
      <rect
         y="254.88242"
         x="21.650042"
         height="1.5555459"
         width="2.9549315"
         id="rect815-4"
         style="opacity:1;fill:#4d4d4d;fill-opacity:1;stroke:none;stroke-width:0.26192206;stroke-linecap:round;stroke-linejoin:round;stroke-miterlimit:4;stroke-dasharray:none;stroke-dashoffset:0;stroke-opacity:0.64878049;paint-order:fill markers stroke" />
      <rect
         y="255.37721"
         x="16.446571"
         height="38.852242"
         width="11.822153"
         id="rect815-6-8-0"
         style="opacity:0.1;fill:#4d4d4d;fill-opacity:1;stroke:none;stroke-width:2.68609262;stroke-linecap:round;stroke-linejoin:round;stroke-miterlimit:4;stroke-dasharray:none;stroke-dashoffset:0;stroke-opacity:0.64878049;paint-order:fill markers stroke" />
    </g>
  </g>
</svg>
